<svg xmlns="http://www.w3.org/2000/svg" xmlns:xlink="http://www.w3.org/1999/xlink" width="500" zoomAndPan="magnify" viewBox="0 0 375 374.999991" height="500" preserveAspectRatio="xMidYMid meet" version="1.0"><defs><g/></defs><rect x="-37.5" width="450" fill="#ffffff" y="-37.499999" height="449.999989" fill-opacity="1"/><rect x="-37.5" width="450" fill="#ffffff" y="-37.499999" height="449.999989" fill-opacity="1"/><rect x="-37.5" width="450" fill="#ffffff" y="-37.499999" height="449.999989" fill-opacity="1"/><path stroke-linecap="butt" transform="matrix(0.75, 0, 0, 0.75, 127.499996, 74.204263)" fill="none" stroke-linejoin="miter" d="M 0.00000516333 3.498483 L 160.000016 3.498483 " stroke="#000000" stroke-width="7" stroke-opacity="1" stroke-miterlimit="4"/><path stroke-linecap="butt" transform="matrix(0.000000000000000379, 0.749505, -0.75, 0.000000000000000379, 129.370938, 74.208636)" fill="none" stroke-linejoin="miter" d="M -0.00214098 3.499792 L 71.060374 3.499792 " stroke="#000000" stroke-width="7" stroke-opacity="1" stroke-miterlimit="4"/><path stroke-linecap="butt" transform="matrix(0.000000000000000046, 0.751087, -0.75, 0.000000000000000046, 250.121707, 74.207537)" fill="none" stroke-linejoin="miter" d="M -0.000672994 3.500818 L 53.931605 3.500818 " stroke="#000000" stroke-width="7" stroke-opacity="1" stroke-miterlimit="4"/><path fill="#a6a6a6" d="M 247.53125 130.953125 L 247.527344 130.953125 C 247.179688 130.980469 246.839844 130.945312 246.507812 130.839844 C 246.175781 130.734375 245.875 130.570312 245.609375 130.347656 C 245.339844 130.125 245.125 129.859375 244.964844 129.550781 C 244.804688 129.242188 244.707031 128.914062 244.679688 128.566406 C 244.648438 128.21875 244.683594 127.878906 244.789062 127.546875 C 244.894531 127.214844 245.058594 126.917969 245.285156 126.648438 C 245.507812 126.382812 245.777344 126.167969 246.085938 126.007812 C 246.394531 125.847656 246.722656 125.753906 247.070312 125.722656 C 247.417969 125.691406 247.761719 125.726562 248.09375 125.832031 C 248.425781 125.9375 248.726562 126.101562 248.992188 126.324219 C 249.261719 126.550781 249.476562 126.816406 249.636719 127.125 C 249.796875 127.433594 249.894531 127.761719 249.921875 128.109375 C 249.953125 128.453125 249.914062 128.792969 249.8125 129.125 C 249.707031 129.457031 249.542969 129.757812 249.316406 130.023438 C 249.09375 130.289062 248.824219 130.503906 248.515625 130.664062 C 248.207031 130.824219 247.878906 130.921875 247.53125 130.953125 Z M 237.039062 131.871094 C 236.691406 131.898438 236.351562 131.863281 236.019531 131.757812 C 235.6875 131.652344 235.386719 131.488281 235.117188 131.265625 C 234.851562 131.042969 234.636719 130.777344 234.476562 130.46875 C 234.316406 130.160156 234.21875 129.832031 234.1875 129.484375 C 234.160156 129.136719 234.195312 128.796875 234.300781 128.464844 C 234.40625 128.132812 234.570312 127.835938 234.796875 127.566406 C 235.019531 127.300781 235.285156 127.085938 235.597656 126.925781 C 235.90625 126.765625 236.234375 126.671875 236.582031 126.640625 C 236.929688 126.609375 237.269531 126.644531 237.605469 126.75 C 237.9375 126.855469 238.238281 127.019531 238.503906 127.242188 C 238.773438 127.46875 238.984375 127.734375 239.148438 128.042969 C 239.308594 128.351562 239.402344 128.679688 239.433594 129.023438 C 239.464844 129.371094 239.425781 129.710938 239.320312 130.042969 C 239.21875 130.375 239.050781 130.675781 238.828125 130.941406 C 238.601562 131.207031 238.335938 131.421875 238.027344 131.582031 C 237.71875 131.742188 237.386719 131.839844 237.039062 131.871094 Z M 226.550781 132.789062 C 226.203125 132.816406 225.863281 132.78125 225.53125 132.675781 C 225.199219 132.570312 224.898438 132.40625 224.628906 132.183594 C 224.363281 131.960938 224.148438 131.695312 223.988281 131.386719 C 223.828125 131.074219 223.730469 130.75 223.699219 130.402344 C 223.671875 130.054688 223.707031 129.714844 223.8125 129.382812 C 223.917969 129.050781 224.082031 128.753906 224.304688 128.484375 C 224.53125 128.21875 224.796875 128.003906 225.109375 127.84375 C 225.417969 127.683594 225.746094 127.585938 226.09375 127.558594 C 226.441406 127.527344 226.78125 127.5625 227.113281 127.667969 C 227.449219 127.773438 227.746094 127.9375 228.015625 128.160156 C 228.28125 128.382812 228.496094 128.652344 228.65625 128.960938 C 228.820312 129.269531 228.914062 129.597656 228.945312 129.941406 C 228.976562 130.289062 228.9375 130.628906 228.832031 130.960938 C 228.726562 131.292969 228.5625 131.59375 228.339844 131.859375 C 228.113281 132.125 227.847656 132.339844 227.539062 132.5 C 227.226562 132.660156 226.898438 132.757812 226.550781 132.789062 Z M 216.0625 133.703125 C 215.714844 133.734375 215.375 133.699219 215.042969 133.59375 C 214.707031 133.488281 214.410156 133.324219 214.140625 133.101562 C 213.875 132.878906 213.660156 132.609375 213.5 132.300781 C 213.335938 131.992188 213.242188 131.667969 213.210938 131.320312 C 213.179688 130.972656 213.21875 130.632812 213.324219 130.300781 C 213.429688 129.96875 213.59375 129.667969 213.816406 129.402344 C 214.042969 129.136719 214.308594 128.921875 214.617188 128.761719 C 214.929688 128.601562 215.257812 128.503906 215.605469 128.476562 C 215.953125 128.445312 216.292969 128.480469 216.625 128.585938 C 216.957031 128.691406 217.257812 128.855469 217.527344 129.078125 C 217.792969 129.300781 218.007812 129.570312 218.167969 129.878906 C 218.328125 130.1875 218.425781 130.511719 218.457031 130.859375 C 218.488281 131.207031 218.449219 131.546875 218.34375 131.878906 C 218.238281 132.210938 218.074219 132.511719 217.851562 132.777344 C 217.625 133.042969 217.359375 133.257812 217.046875 133.417969 C 216.738281 133.578125 216.410156 133.675781 216.0625 133.703125 Z M 205.574219 134.621094 C 205.226562 134.652344 204.886719 134.617188 204.550781 134.511719 C 204.21875 134.40625 203.917969 134.242188 203.652344 134.019531 C 203.386719 133.796875 203.171875 133.527344 203.007812 133.21875 C 202.847656 132.910156 202.753906 132.582031 202.722656 132.238281 C 202.691406 131.890625 202.730469 131.550781 202.835938 131.21875 C 202.941406 130.886719 203.105469 130.585938 203.328125 130.320312 C 203.554688 130.054688 203.820312 129.839844 204.128906 129.679688 C 204.4375 129.519531 204.769531 129.421875 205.117188 129.390625 C 205.464844 129.363281 205.804688 129.398438 206.136719 129.503906 C 206.46875 129.609375 206.769531 129.773438 207.039062 129.996094 C 207.304688 130.21875 207.519531 130.484375 207.679688 130.792969 C 207.839844 131.105469 207.9375 131.429688 207.96875 131.777344 C 207.996094 132.125 207.960938 132.464844 207.855469 132.796875 C 207.75 133.128906 207.585938 133.425781 207.359375 133.695312 C 207.136719 133.960938 206.871094 134.175781 206.558594 134.335938 C 206.25 134.496094 205.921875 134.59375 205.574219 134.621094 Z M 195.085938 135.539062 C 194.738281 135.570312 194.394531 135.535156 194.0625 135.429688 C 193.730469 135.324219 193.429688 135.160156 193.164062 134.9375 C 192.894531 134.710938 192.683594 134.445312 192.519531 134.136719 C 192.359375 133.828125 192.265625 133.5 192.234375 133.15625 C 192.203125 132.808594 192.242188 132.46875 192.34375 132.136719 C 192.449219 131.804688 192.617188 131.503906 192.839844 131.238281 C 193.0625 130.972656 193.332031 130.757812 193.640625 130.597656 C 193.949219 130.4375 194.277344 130.339844 194.625 130.308594 L 194.628906 130.308594 C 194.976562 130.28125 195.316406 130.316406 195.648438 130.421875 C 195.980469 130.527344 196.28125 130.691406 196.546875 130.914062 C 196.816406 131.136719 197.03125 131.402344 197.191406 131.710938 C 197.351562 132.019531 197.449219 132.347656 197.476562 132.695312 C 197.507812 133.042969 197.472656 133.382812 197.367188 133.714844 C 197.261719 134.046875 197.097656 134.34375 196.871094 134.613281 C 196.648438 134.878906 196.378906 135.09375 196.070312 135.253906 C 195.761719 135.414062 195.433594 135.507812 195.085938 135.539062 Z M 184.597656 136.457031 L 184.59375 136.457031 C 184.246094 136.488281 183.90625 136.453125 183.574219 136.347656 C 183.242188 136.242188 182.941406 136.078125 182.675781 135.855469 C 182.40625 135.628906 182.191406 135.363281 182.03125 135.054688 C 181.871094 134.746094 181.773438 134.417969 181.746094 134.074219 C 181.714844 133.726562 181.75 133.386719 181.855469 133.054688 C 181.960938 132.722656 182.125 132.421875 182.351562 132.15625 C 182.574219 131.890625 182.84375 131.675781 183.152344 131.515625 C 183.460938 131.355469 183.789062 131.257812 184.136719 131.226562 C 184.484375 131.199219 184.828125 131.234375 185.160156 131.339844 C 185.492188 131.445312 185.792969 131.609375 186.058594 131.832031 C 186.328125 132.054688 186.539062 132.320312 186.703125 132.628906 C 186.863281 132.9375 186.957031 133.265625 186.988281 133.613281 C 187.019531 133.960938 186.980469 134.300781 186.878906 134.632812 C 186.773438 134.964844 186.609375 135.261719 186.382812 135.53125 C 186.160156 135.796875 185.890625 136.011719 185.582031 136.171875 C 185.273438 136.332031 184.945312 136.425781 184.597656 136.457031 Z M 174.105469 137.375 C 173.757812 137.40625 173.417969 137.367188 173.085938 137.265625 C 172.753906 137.160156 172.453125 136.996094 172.183594 136.773438 C 171.917969 136.546875 171.703125 136.28125 171.542969 135.972656 C 171.382812 135.664062 171.285156 135.335938 171.253906 134.988281 C 171.226562 134.644531 171.261719 134.304688 171.367188 133.972656 C 171.472656 133.640625 171.636719 133.339844 171.863281 133.074219 C 172.085938 132.808594 172.351562 132.59375 172.664062 132.433594 C 172.972656 132.273438 173.300781 132.175781 173.648438 132.144531 C 173.996094 132.113281 174.335938 132.152344 174.671875 132.257812 C 175.003906 132.363281 175.304688 132.527344 175.570312 132.75 C 175.835938 132.972656 176.050781 133.238281 176.214844 133.546875 C 176.375 133.855469 176.46875 134.183594 176.5 134.53125 C 176.53125 134.878906 176.492188 135.21875 176.386719 135.550781 C 176.285156 135.882812 176.117188 136.179688 175.894531 136.449219 C 175.667969 136.714844 175.402344 136.929688 175.09375 137.089844 C 174.785156 137.25 174.453125 137.34375 174.105469 137.375 Z M 163.617188 138.292969 C 163.269531 138.324219 162.929688 138.285156 162.597656 138.183594 C 162.265625 138.078125 161.964844 137.914062 161.695312 137.691406 C 161.429688 137.464844 161.214844 137.199219 161.054688 136.890625 C 160.894531 136.582031 160.796875 136.253906 160.765625 135.90625 C 160.734375 135.5625 160.773438 135.222656 160.878906 134.890625 C 160.984375 134.558594 161.148438 134.257812 161.371094 133.992188 C 161.597656 133.722656 161.863281 133.511719 162.175781 133.351562 C 162.484375 133.1875 162.8125 133.09375 163.160156 133.0625 C 163.507812 133.03125 163.847656 133.070312 164.179688 133.175781 C 164.515625 133.277344 164.8125 133.441406 165.082031 133.667969 C 165.347656 133.890625 165.5625 134.15625 165.722656 134.464844 C 165.886719 134.773438 165.980469 135.101562 166.011719 135.449219 C 166.042969 135.796875 166.003906 136.136719 165.898438 136.46875 C 165.792969 136.800781 165.628906 137.097656 165.40625 137.363281 C 165.179688 137.632812 164.914062 137.84375 164.605469 138.007812 C 164.292969 138.167969 163.964844 138.261719 163.617188 138.292969 Z M 153.128906 139.210938 C 152.78125 139.242188 152.441406 139.203125 152.109375 139.097656 C 151.773438 138.996094 151.476562 138.832031 151.207031 138.605469 C 150.941406 138.382812 150.726562 138.117188 150.566406 137.808594 C 150.402344 137.5 150.308594 137.171875 150.277344 136.824219 C 150.246094 136.476562 150.285156 136.140625 150.390625 135.808594 C 150.496094 135.476562 150.660156 135.175781 150.882812 134.910156 C 151.109375 134.640625 151.375 134.429688 151.683594 134.269531 C 151.996094 134.105469 152.324219 134.011719 152.671875 133.980469 C 153.019531 133.949219 153.359375 133.988281 153.691406 134.09375 C 154.023438 134.195312 154.324219 134.359375 154.59375 134.585938 C 154.859375 134.808594 155.074219 135.074219 155.234375 135.382812 C 155.394531 135.691406 155.492188 136.019531 155.523438 136.367188 C 155.550781 136.714844 155.515625 137.050781 155.410156 137.382812 C 155.304688 137.714844 155.140625 138.015625 154.917969 138.28125 C 154.691406 138.550781 154.425781 138.761719 154.113281 138.925781 C 153.804688 139.085938 153.476562 139.179688 153.128906 139.210938 Z M 142.640625 140.128906 C 142.292969 140.160156 141.953125 140.121094 141.617188 140.015625 C 141.285156 139.914062 140.984375 139.75 140.71875 139.523438 C 140.449219 139.300781 140.238281 139.035156 140.074219 138.726562 C 139.914062 138.417969 139.820312 138.089844 139.789062 137.742188 C 139.757812 137.394531 139.796875 137.058594 139.902344 136.726562 C 140.003906 136.394531 140.171875 136.09375 140.394531 135.828125 C 140.621094 135.558594 140.886719 135.347656 141.195312 135.183594 C 141.503906 135.023438 141.835938 134.929688 142.183594 134.898438 C 142.53125 134.867188 142.871094 134.90625 143.203125 135.007812 C 143.535156 135.113281 143.835938 135.277344 144.105469 135.503906 C 144.371094 135.726562 144.585938 135.992188 144.746094 136.300781 C 144.90625 136.609375 145.003906 136.9375 145.035156 137.285156 C 145.0625 137.628906 145.027344 137.96875 144.921875 138.300781 C 144.816406 138.632812 144.652344 138.933594 144.425781 139.199219 C 144.203125 139.46875 143.9375 139.679688 143.625 139.839844 C 143.316406 140.003906 142.988281 140.097656 142.640625 140.128906 Z M 132.152344 141.046875 C 131.804688 141.078125 131.460938 141.039062 131.128906 140.933594 C 130.796875 140.832031 130.496094 140.667969 130.230469 140.441406 C 129.960938 140.21875 129.746094 139.953125 129.585938 139.644531 C 129.425781 139.335938 129.328125 139.007812 129.300781 138.660156 C 129.269531 138.3125 129.308594 137.972656 129.410156 137.640625 C 129.515625 137.308594 129.679688 137.011719 129.90625 136.746094 C 130.128906 136.476562 130.398438 136.265625 130.707031 136.101562 C 131.015625 135.941406 131.34375 135.847656 131.691406 135.816406 L 131.695312 135.816406 C 132.042969 135.785156 132.382812 135.824219 132.714844 135.925781 C 133.046875 136.03125 133.347656 136.195312 133.613281 136.417969 C 133.882812 136.644531 134.097656 136.910156 134.257812 137.21875 C 134.417969 137.527344 134.515625 137.855469 134.542969 138.203125 C 134.574219 138.546875 134.539062 138.886719 134.433594 139.21875 C 134.328125 139.550781 134.164062 139.851562 133.9375 140.117188 C 133.714844 140.382812 133.445312 140.597656 133.136719 140.757812 C 132.828125 140.921875 132.5 141.015625 132.152344 141.046875 Z M 121.664062 141.964844 L 121.660156 141.964844 C 121.3125 141.996094 120.972656 141.957031 120.640625 141.851562 C 120.308594 141.746094 120.007812 141.582031 119.742188 141.359375 C 119.472656 141.136719 119.257812 140.871094 119.097656 140.5625 C 118.9375 140.253906 118.839844 139.925781 118.8125 139.578125 C 118.78125 139.230469 118.816406 138.890625 118.921875 138.558594 C 119.027344 138.226562 119.191406 137.929688 119.417969 137.660156 C 119.640625 137.394531 119.910156 137.179688 120.21875 137.019531 C 120.527344 136.859375 120.855469 136.765625 121.203125 136.734375 C 121.550781 136.703125 121.894531 136.742188 122.226562 136.84375 C 122.558594 136.949219 122.859375 137.113281 123.125 137.335938 C 123.394531 137.5625 123.605469 137.828125 123.769531 138.136719 C 123.929688 138.445312 124.023438 138.773438 124.054688 139.121094 C 124.085938 139.464844 124.046875 139.804688 123.945312 140.136719 C 123.839844 140.46875 123.671875 140.769531 123.449219 141.035156 C 123.226562 141.300781 122.957031 141.515625 122.648438 141.675781 C 122.339844 141.835938 122.011719 141.933594 121.664062 141.964844 Z M 121.664062 141.964844 " fill-opacity="1" fill-rule="nonzero"/><path fill="#a6a6a6" d="M 119.753906 149.183594 C 119.785156 149.535156 119.75 149.878906 119.644531 150.214844 C 119.539062 150.550781 119.375 150.851562 119.152344 151.121094 C 118.929688 151.390625 118.664062 151.605469 118.355469 151.769531 C 118.046875 151.929688 117.71875 152.027344 117.371094 152.058594 C 117.023438 152.089844 116.683594 152.050781 116.351562 151.945312 C 116.019531 151.835938 115.722656 151.671875 115.453125 151.445312 C 115.1875 151.21875 114.972656 150.949219 114.8125 150.636719 C 114.652344 150.324219 114.554688 149.992188 114.523438 149.640625 C 114.496094 149.289062 114.53125 148.949219 114.636719 148.613281 C 114.738281 148.277344 114.902344 147.972656 115.128906 147.703125 C 115.351562 147.433594 115.617188 147.21875 115.925781 147.058594 C 116.234375 146.894531 116.5625 146.796875 116.910156 146.769531 C 117.253906 146.738281 117.59375 146.777344 117.925781 146.882812 C 118.257812 146.988281 118.558594 147.15625 118.824219 147.382812 C 119.09375 147.609375 119.304688 147.878906 119.46875 148.1875 C 119.628906 148.5 119.722656 148.832031 119.753906 149.183594 Z M 120.679688 159.761719 C 120.710938 160.113281 120.675781 160.457031 120.570312 160.792969 C 120.464844 161.128906 120.300781 161.429688 120.078125 161.699219 C 119.855469 161.96875 119.589844 162.183594 119.28125 162.347656 C 118.972656 162.511719 118.644531 162.605469 118.296875 162.636719 C 117.949219 162.667969 117.609375 162.628906 117.277344 162.523438 C 116.945312 162.417969 116.648438 162.25 116.378906 162.023438 C 116.113281 161.796875 115.898438 161.527344 115.738281 161.214844 C 115.578125 160.902344 115.480469 160.570312 115.449219 160.21875 C 115.417969 159.871094 115.457031 159.527344 115.5625 159.191406 C 115.664062 158.855469 115.828125 158.550781 116.050781 158.28125 C 116.277344 158.015625 116.542969 157.796875 116.851562 157.636719 C 117.160156 157.472656 117.488281 157.378906 117.835938 157.347656 C 118.179688 157.316406 118.519531 157.355469 118.851562 157.460938 C 119.183594 157.566406 119.484375 157.734375 119.75 157.960938 C 120.019531 158.1875 120.230469 158.457031 120.394531 158.769531 C 120.554688 159.082031 120.648438 159.410156 120.679688 159.761719 Z M 120.679688 159.761719 " fill-opacity="1" fill-rule="nonzero"/><path fill="#a6a6a6" d="M 258.425781 135.792969 C 258.457031 136.136719 258.417969 136.472656 258.3125 136.804688 C 258.210938 137.132812 258.046875 137.429688 257.820312 137.695312 C 257.597656 137.960938 257.332031 138.175781 257.023438 138.332031 C 256.714844 138.492188 256.386719 138.589844 256.039062 138.621094 C 255.691406 138.648438 255.351562 138.613281 255.019531 138.507812 C 254.6875 138.40625 254.390625 138.242188 254.121094 138.019531 C 253.855469 137.796875 253.644531 137.53125 253.480469 137.226562 C 253.320312 136.917969 253.226562 136.59375 253.195312 136.25 C 253.167969 135.902344 253.203125 135.566406 253.308594 135.238281 C 253.414062 134.90625 253.578125 134.609375 253.800781 134.34375 C 254.023438 134.078125 254.292969 133.867188 254.601562 133.707031 C 254.910156 133.546875 255.238281 133.453125 255.582031 133.421875 C 255.929688 133.390625 256.269531 133.429688 256.601562 133.53125 C 256.933594 133.636719 257.234375 133.796875 257.5 134.019531 C 257.765625 134.242188 257.980469 134.507812 258.140625 134.8125 C 258.300781 135.121094 258.394531 135.445312 258.425781 135.792969 Z M 259.335938 146.1875 C 259.367188 146.53125 259.328125 146.867188 259.222656 147.199219 C 259.117188 147.527344 258.953125 147.824219 258.730469 148.089844 C 258.507812 148.355469 258.242188 148.570312 257.929688 148.726562 C 257.621094 148.886719 257.292969 148.984375 256.949219 149.015625 C 256.601562 149.042969 256.261719 149.007812 255.929688 148.902344 C 255.597656 148.800781 255.300781 148.636719 255.03125 148.414062 C 254.765625 148.191406 254.550781 147.929688 254.390625 147.621094 C 254.230469 147.3125 254.136719 146.988281 254.105469 146.644531 C 254.074219 146.300781 254.113281 145.960938 254.21875 145.632812 C 254.324219 145.300781 254.488281 145.003906 254.710938 144.738281 C 254.933594 144.472656 255.199219 144.261719 255.511719 144.101562 C 255.820312 143.941406 256.148438 143.847656 256.492188 143.816406 C 256.839844 143.785156 257.179688 143.824219 257.511719 143.925781 C 257.84375 144.03125 258.140625 144.191406 258.410156 144.414062 C 258.675781 144.636719 258.890625 144.902344 259.050781 145.207031 C 259.210938 145.515625 259.304688 145.839844 259.335938 146.1875 Z M 260.246094 156.582031 C 260.273438 156.925781 260.238281 157.261719 260.132812 157.59375 C 260.027344 157.921875 259.863281 158.21875 259.640625 158.484375 C 259.417969 158.75 259.148438 158.964844 258.839844 159.125 C 258.53125 159.28125 258.203125 159.378906 257.859375 159.410156 C 257.511719 159.4375 257.171875 159.402344 256.839844 159.296875 C 256.507812 159.195312 256.207031 159.03125 255.941406 158.808594 C 255.675781 158.585938 255.460938 158.324219 255.300781 158.015625 C 255.140625 157.707031 255.046875 157.382812 255.015625 157.039062 C 254.984375 156.695312 255.023438 156.355469 255.128906 156.027344 C 255.230469 155.695312 255.394531 155.398438 255.621094 155.132812 C 255.84375 154.867188 256.109375 154.65625 256.417969 154.496094 C 256.726562 154.335938 257.054688 154.242188 257.402344 154.210938 C 257.75 154.179688 258.089844 154.21875 258.421875 154.320312 C 258.753906 154.425781 259.050781 154.589844 259.320312 154.808594 C 259.585938 155.03125 259.796875 155.296875 259.960938 155.605469 C 260.121094 155.910156 260.214844 156.234375 260.246094 156.582031 Z M 261.15625 166.976562 C 261.183594 167.320312 261.148438 167.65625 261.042969 167.988281 C 260.9375 168.316406 260.773438 168.613281 260.550781 168.878906 C 260.324219 169.144531 260.058594 169.359375 259.75 169.519531 C 259.441406 169.675781 259.113281 169.773438 258.765625 169.804688 C 258.421875 169.832031 258.082031 169.796875 257.75 169.691406 C 257.417969 169.589844 257.117188 169.425781 256.851562 169.203125 C 256.585938 168.980469 256.371094 168.71875 256.210938 168.410156 C 256.050781 168.105469 255.953125 167.777344 255.925781 167.433594 C 255.894531 167.089844 255.933594 166.75 256.035156 166.421875 C 256.140625 166.089844 256.304688 165.792969 256.53125 165.527344 C 256.753906 165.261719 257.019531 165.050781 257.328125 164.890625 C 257.636719 164.730469 257.964844 164.636719 258.3125 164.605469 C 258.660156 164.574219 259 164.613281 259.332031 164.714844 C 259.660156 164.820312 259.960938 164.984375 260.226562 165.203125 C 260.496094 165.425781 260.707031 165.691406 260.867188 166 C 261.027344 166.304688 261.125 166.628906 261.15625 166.976562 Z M 262.0625 177.371094 C 262.09375 177.714844 262.058594 178.050781 261.953125 178.382812 C 261.847656 178.710938 261.683594 179.011719 261.457031 179.273438 C 261.234375 179.539062 260.96875 179.753906 260.660156 179.914062 C 260.351562 180.074219 260.023438 180.167969 259.675781 180.199219 C 259.328125 180.226562 258.988281 180.191406 258.660156 180.085938 C 258.328125 179.984375 258.027344 179.820312 257.761719 179.597656 C 257.492188 179.375 257.28125 179.113281 257.121094 178.804688 C 256.960938 178.5 256.863281 178.171875 256.832031 177.828125 C 256.804688 177.484375 256.839844 177.144531 256.945312 176.816406 C 257.050781 176.484375 257.214844 176.1875 257.4375 175.921875 C 257.664062 175.65625 257.929688 175.445312 258.238281 175.285156 C 258.546875 175.125 258.875 175.03125 259.222656 175 C 259.566406 174.96875 259.90625 175.007812 260.238281 175.109375 C 260.570312 175.214844 260.871094 175.378906 261.136719 175.597656 C 261.402344 175.820312 261.617188 176.085938 261.777344 176.394531 C 261.9375 176.699219 262.035156 177.023438 262.0625 177.371094 Z M 262.0625 177.371094 " fill-opacity="1" fill-rule="nonzero"/><path stroke-linecap="butt" transform="matrix(0.74803, 0.070986, -0.0708546, 0.746646, 105.367534, 172.20866)" fill="none" stroke-linejoin="miter" d="M 0.00185336 3.497672 L 227.579089 3.499629 " stroke="#000000" stroke-width="7" stroke-opacity="1" stroke-miterlimit="4"/><path stroke-linecap="butt" transform="matrix(0.748081, 0.0709908, -0.0708546, 0.746646, 99.641379, 232.619618)" fill="none" stroke-linejoin="miter" d="M 0.00170349 3.501845 L 227.573152 3.497634 " stroke="#000000" stroke-width="7" stroke-opacity="1" stroke-miterlimit="4"/><path stroke-linecap="butt" transform="matrix(-0.070931, 0.747451, -0.746646, -0.0708546, 110.681796, 172.713826)" fill="none" stroke-linejoin="miter" d="M -0.00153796 3.497767 L 86.90885 3.502219 " stroke="#000000" stroke-width="7" stroke-opacity="1" stroke-miterlimit="4"/><path stroke-linecap="butt" transform="matrix(-0.0750206, 0.747052, -0.746247, -0.0749397, 275.853034, 188.399798)" fill="none" stroke-linejoin="miter" d="M -0.00118253 3.498757 L 86.919002 3.502291 " stroke="#000000" stroke-width="7" stroke-opacity="1" stroke-miterlimit="4"/><g fill="#737373" fill-opacity="1"><g transform="translate(160.758057, 115.404813)"><g><path d="M 7.453125 0.25 C 5.210938 0.25 3.632812 -0.414062 2.71875 -1.75 C 1.800781 -3.082031 1.34375 -4.925781 1.34375 -7.28125 L 1.34375 -15.296875 C 1.34375 -17.773438 1.789062 -19.660156 2.6875 -20.953125 C 3.582031 -22.242188 5.171875 -22.890625 7.453125 -22.890625 C 9.484375 -22.890625 10.941406 -22.335938 11.828125 -21.234375 C 12.722656 -20.128906 13.171875 -18.503906 13.171875 -16.359375 L 13.171875 -14.5625 L 10.171875 -14.5625 L 10.171875 -16.171875 C 10.171875 -17.210938 10.125 -18.015625 10.03125 -18.578125 C 9.9375 -19.140625 9.695312 -19.585938 9.3125 -19.921875 C 8.925781 -20.253906 8.316406 -20.421875 7.484375 -20.421875 C 6.617188 -20.421875 5.976562 -20.238281 5.5625 -19.875 C 5.144531 -19.507812 4.867188 -19.003906 4.734375 -18.359375 C 4.597656 -17.710938 4.53125 -16.847656 4.53125 -15.765625 L 4.53125 -6.78125 C 4.53125 -5.625 4.625 -4.71875 4.8125 -4.0625 C 5 -3.40625 5.300781 -2.9375 5.71875 -2.65625 C 6.144531 -2.375 6.734375 -2.234375 7.484375 -2.234375 C 8.285156 -2.234375 8.878906 -2.410156 9.265625 -2.765625 C 9.660156 -3.128906 9.910156 -3.617188 10.015625 -4.234375 C 10.117188 -4.847656 10.171875 -5.6875 10.171875 -6.75 L 10.171875 -8.4375 L 13.171875 -8.4375 L 13.171875 -6.75 C 13.171875 -4.488281 12.742188 -2.753906 11.890625 -1.546875 C 11.046875 -0.347656 9.566406 0.25 7.453125 0.25 Z M 7.453125 0.25 "/></g></g></g><g fill="#737373" fill-opacity="1"><g transform="translate(175.182074, 115.404813)"><g><path d="M 5.34375 -22.6875 L 8.40625 -22.6875 L 13.25 0 L 10.25 0 L 9.21875 -5.71875 L 4.59375 -5.71875 L 3.5 0 L 0.53125 0 Z M 8.796875 -7.984375 L 6.890625 -18.203125 L 5.015625 -7.984375 Z M 8.796875 -7.984375 "/></g></g></g><g fill="#737373" fill-opacity="1"><g transform="translate(188.961916, 115.404813)"><g><path d="M 1.765625 -22.6875 L 4.9375 -22.6875 L 4.9375 -11.984375 L 10.140625 -22.6875 L 13.078125 -22.6875 L 8.59375 -12.6875 L 13.8125 0 L 10.734375 0 L 6.390625 -10.640625 L 4.9375 -8.015625 L 4.9375 0 L 1.765625 0 Z M 1.765625 -22.6875 "/></g></g></g><g fill="#737373" fill-opacity="1"><g transform="translate(202.82578, 115.404813)"><g><path d="M 1.765625 -22.6875 L 10.5625 -22.6875 L 10.5625 -20.34375 L 4.9375 -20.34375 L 4.9375 -12.828125 L 9.5 -12.828125 L 9.5 -10.59375 L 4.9375 -10.59375 L 4.9375 -2.265625 L 10.625 -2.265625 L 10.625 0 L 1.765625 0 Z M 1.765625 -22.6875 "/></g></g></g><g fill="#545454" fill-opacity="1"><g transform="translate(178.247116, 172.634989)"><g><path d="M 7.109375 0.28125 C 5.441406 0.28125 4.132812 -0.234375 3.1875 -1.265625 C 2.238281 -2.296875 1.765625 -3.632812 1.765625 -5.28125 C 1.765625 -6.726562 2.082031 -8.023438 2.71875 -9.171875 C 3.363281 -10.316406 4.25 -11.398438 5.375 -12.421875 L 4.703125 -13.671875 C 4.046875 -14.847656 3.546875 -15.867188 3.203125 -16.734375 C 2.859375 -17.597656 2.6875 -18.507812 2.6875 -19.46875 C 2.6875 -21.113281 3.15625 -22.4375 4.09375 -23.4375 C 5.039062 -24.4375 6.332031 -24.9375 7.96875 -24.9375 C 9.488281 -24.9375 10.742188 -24.519531 11.734375 -23.6875 C 12.722656 -22.863281 13.21875 -21.753906 13.21875 -20.359375 C 13.21875 -18.910156 12.773438 -17.519531 11.890625 -16.1875 C 11.003906 -14.851562 9.898438 -13.546875 8.578125 -12.265625 L 12.296875 -6.40625 C 12.890625 -7.539062 13.296875 -9.191406 13.515625 -11.359375 L 16.75 -11.359375 C 16.75 -10.210938 16.507812 -8.984375 16.03125 -7.671875 C 15.550781 -6.359375 15 -5.253906 14.375 -4.359375 C 14.65625 -3.992188 15.007812 -3.691406 15.4375 -3.453125 C 15.863281 -3.222656 16.3125 -3.109375 16.78125 -3.109375 L 16.78125 0.25 L 16.359375 0.25 C 15.804688 0.25 15.300781 0.128906 14.84375 -0.109375 C 14.382812 -0.359375 14.015625 -0.609375 13.734375 -0.859375 C 13.453125 -1.117188 13.015625 -1.546875 12.421875 -2.140625 C 11.828125 -1.398438 11.082031 -0.8125 10.1875 -0.375 C 9.289062 0.0625 8.265625 0.28125 7.109375 0.28125 Z M 7.453125 -14.03125 C 8.140625 -14.851562 8.726562 -15.84375 9.21875 -17 C 9.707031 -18.15625 9.953125 -19.273438 9.953125 -20.359375 C 9.953125 -20.941406 9.769531 -21.398438 9.40625 -21.734375 C 9.050781 -22.078125 8.570312 -22.25 7.96875 -22.25 C 7.269531 -22.25 6.757812 -21.976562 6.4375 -21.4375 C 6.113281 -20.894531 5.953125 -20.238281 5.953125 -19.46875 C 5.953125 -18.613281 6.082031 -17.753906 6.34375 -16.890625 C 6.613281 -16.023438 6.984375 -15.070312 7.453125 -14.03125 Z M 7.109375 -2.4375 C 8.347656 -2.4375 9.457031 -3.046875 10.4375 -4.265625 L 6.65625 -10.09375 C 6.164062 -9.46875 5.769531 -8.726562 5.46875 -7.875 C 5.175781 -7.019531 5.03125 -6.15625 5.03125 -5.28125 C 5.03125 -4.46875 5.191406 -3.789062 5.515625 -3.25 C 5.847656 -2.707031 6.378906 -2.4375 7.109375 -2.4375 Z M 7.109375 -2.4375 "/></g></g></g><g fill="#545454" fill-opacity="1"><g transform="translate(149.852222, 227.823047)"><g><path d="M 2.46875 -31.8125 L 9.78125 -31.8125 C 12.65625 -31.8125 14.785156 -31.160156 16.171875 -29.859375 C 17.566406 -28.566406 18.265625 -26.554688 18.265625 -23.828125 C 18.265625 -19.773438 16.742188 -17.539062 13.703125 -17.125 C 15.585938 -16.675781 16.960938 -15.789062 17.828125 -14.46875 C 18.691406 -13.144531 19.125 -11.347656 19.125 -9.078125 C 19.125 -6.222656 18.445312 -3.992188 17.09375 -2.390625 C 15.75 -0.796875 13.703125 0 10.953125 0 L 2.46875 0 Z M 9.546875 -18.53125 C 11.378906 -18.53125 12.644531 -18.925781 13.34375 -19.71875 C 14.050781 -20.519531 14.40625 -21.890625 14.40625 -23.828125 C 14.40625 -25.242188 14.1875 -26.285156 13.75 -26.953125 C 13.320312 -27.617188 12.675781 -28.039062 11.8125 -28.21875 C 10.945312 -28.40625 9.664062 -28.5 7.96875 -28.5 L 6.90625 -28.5 L 6.90625 -18.53125 Z M 9.890625 -3.1875 C 11.203125 -3.1875 12.21875 -3.382812 12.9375 -3.78125 C 13.65625 -4.1875 14.15625 -4.804688 14.4375 -5.640625 C 14.726562 -6.484375 14.875 -7.628906 14.875 -9.078125 C 14.875 -11.117188 14.457031 -12.640625 13.625 -13.640625 C 12.789062 -14.648438 11.429688 -15.15625 9.546875 -15.15625 L 6.90625 -15.15625 L 6.90625 -3.1875 Z M 9.890625 -3.1875 "/></g></g></g><g fill="#545454" fill-opacity="1"><g transform="translate(170.423354, 227.823047)"><g><path d="M 7.5 -31.8125 L 11.78125 -31.8125 L 18.578125 0 L 14.375 0 L 12.921875 -8.015625 L 6.4375 -8.015625 L 4.90625 0 L 0.75 0 Z M 12.328125 -11.1875 L 9.65625 -25.515625 L 7.03125 -11.1875 Z M 12.328125 -11.1875 "/></g></g></g><g fill="#545454" fill-opacity="1"><g transform="translate(189.738233, 227.823047)"><g><path d="M 2.46875 -31.8125 L 6.90625 -31.8125 L 6.90625 -16.8125 L 14.21875 -31.8125 L 18.34375 -31.8125 L 12.046875 -17.78125 L 19.359375 0 L 15.03125 0 L 8.953125 -14.921875 L 6.90625 -11.234375 L 6.90625 0 L 2.46875 0 Z M 2.46875 -31.8125 "/></g></g></g><g fill="#545454" fill-opacity="1"><g transform="translate(209.170883, 227.823047)"><g><path d="M 2.46875 -31.8125 L 14.796875 -31.8125 L 14.796875 -28.5 L 6.90625 -28.5 L 6.90625 -17.984375 L 13.3125 -17.984375 L 13.3125 -14.84375 L 6.90625 -14.84375 L 6.90625 -3.1875 L 14.875 -3.1875 L 14.875 0 L 2.46875 0 Z M 2.46875 -31.8125 "/></g></g></g></svg>